<svg id="Laag_1" data-name="Laag 1" xmlns="http://www.w3.org/2000/svg" viewBox="0 0 95.54 27.95"><defs><style>.cls-1,.cls-2{fill:#2d4e9c;}.cls-2{font-size:6.87px;font-family:Ubuntu-Italic, Ubuntu;font-style:italic;letter-spacing:0.03em;}</style></defs><polygon class="cls-1" points="24.38 17.39 24.24 17.41 24.07 17.52 23.93 17.61 23.72 17.8 23.64 17.93 23.58 18.07 23.57 18.4 23.69 18.56 23.89 18.68 24.11 18.75 24.44 18.75 24.58 18.65 24.74 18.44 24.75 18.16 24.7 17.96 24.58 17.68 24.38 17.39"/><polygon class="cls-1" points="31.14 12.85 31.83 13.89 30.63 14.74 30.18 14.77 30.16 13.98 30.11 13.64 31.14 12.85"/><polygon class="cls-1" points="29.72 13.95 29.73 14.65 28.91 14.64 29.72 13.95"/><polygon class="cls-1" points="33.18 17.57 31.93 14.15 31.48 14.44 31.13 14.68 30.77 14.89 30.6 14.97 30.36 15.01 30.2 15.02 30.06 15.01 29.84 14.96 29.65 14.89 29.33 14.87 29.1 14.87 28.89 14.96 28.18 15.25 27.58 15.6 26.75 16.12 25.94 16.52 25.42 16.82 25.09 17 24.77 17.14 24.54 17.26 24.44 17.3 24.4 17.32 24.53 17.42 24.66 17.54 24.73 17.67 24.8 17.84 24.87 18.04 24.86 18.19 24.88 18.34 24.89 18.46 24.89 18.51 25.02 18.5 25.2 18.38 25.58 18.14 25.94 17.85 26.36 17.66 26.74 17.47 27.1 17.41 27.53 17.34 27.92 17.25 28.08 17.14 28.15 17.07 28.46 17.07 28.46 17.34 28.25 17.37 28.18 17.39 27.98 17.54 27.8 17.72 27.39 17.95 27 18.2 26.64 18.39 26.27 18.6 25.93 18.74 25.69 18.82 25.46 18.84 25.26 18.9 25.16 18.91 24.87 18.94 24.47 18.94 24.04 18.91 23.87 18.9 23.51 18.69 23.28 18.31 23.17 18.19 23.03 18.03 22.89 17.91 22.24 17.3 21.72 16.73 21.47 16.48 21.32 16.34 20.77 16.34 20.75 16.63 20.93 17 21.16 17.4 21.51 17.93 21.76 18.34 22.13 18.8 22.37 19.08 22.77 19.4 23.18 19.65 23.66 19.8 24.18 19.91 24.63 20.02 25.04 20.12 25.49 20.24 25.88 20.26 26.61 20.3 27.2 20.3 27.71 20.02 28.26 19.73 28.79 19.43 29.29 19.15 29.96 18.68 30.58 18.24 31.04 17.99 31.49 17.77 31.91 17.7 32.27 17.61 32.82 17.57 33.18 17.57"/><polygon class="cls-1" points="27.27 17.78 26.48 18.24 26.12 18.4 25.86 18.54 25.43 18.66 25.35 18.65 25.34 18.57 25.69 18.36 26.2 18.05 26.51 17.9 26.83 17.76 27.06 17.71 27.28 17.71 27.32 17.72 27.27 17.78"/><path class="cls-1" d="M32.13,15a5.53,5.53,0,0,0,0-.71A8.23,8.23,0,0,0,32,12.56a5.2,5.2,0,0,1-2,.68c0,.46.06.94.06,1.42s0,.74,0,1.11A7,7,0,0,0,32.13,15" transform="translate(-2.46 -1.33)"/><path class="cls-1" d="M26.12,13.93a14.81,14.81,0,0,0,0,1.76,9.53,9.53,0,0,0,2.13.23,9.73,9.73,0,0,0,1.34-.09v-1c0-.54,0-1.06,0-1.57a8.49,8.49,0,0,1-.88.05A7.48,7.48,0,0,1,26.24,13c0,.32-.09.64-.12,1" transform="translate(-2.46 -1.33)"/><path class="cls-1" d="M32.3,12.33a6.35,6.35,0,0,1,.26,1.82q0,.3,0,.6a1.9,1.9,0,0,0,.79-1.16,6.64,6.64,0,0,0-.54-2.21v0a1.25,1.25,0,0,1-.48.91" transform="translate(-2.46 -1.33)"/><path class="cls-1" d="M29.5,10.36a16.65,16.65,0,0,1,.4,2.29,4.64,4.64,0,0,0,1.88-.88A9.68,9.68,0,0,0,31,9.93a6.61,6.61,0,0,1,1,1.62,1.34,1.34,0,0,0,.38-.9h0A5.72,5.72,0,0,0,30.85,9a.62.62,0,0,1,.11.34c0,.47-.6.87-1.46,1" transform="translate(-2.46 -1.33)"/><path class="cls-1" d="M27.05,18.29c.6.23,1.36-1,2.14-1.08.14,0,.31-.2.43-.2.07-.69,0,.21.05-.58h-.44a8.25,8.25,0,0,1-3-.52,11.05,11.05,0,0,0,.26,1.61A7.27,7.27,0,0,1,26,15.82a4.49,4.49,0,0,1-.69-.41,6.37,6.37,0,0,0,.66.21,8.94,8.94,0,0,1-.06-1.88,9.06,9.06,0,0,1,.13-.91,3.07,3.07,0,0,1-.72-.4c.24.09.49.16.75.23a7.21,7.21,0,0,1,1-2.46,2.43,2.43,0,0,1-.51-.27,3.16,3.16,0,0,0,.59.16l.33-.42a4.53,4.53,0,0,0-.23.44,5.46,5.46,0,0,0,.83.07A4.79,4.79,0,0,0,29.37,10l-.15-.78c.09.22.18.47.27.74.6-.2,1-.52,1-.88A.78.78,0,0,0,30,8.45a4.82,4.82,0,0,0-2-.42c-3,0-5.36,2.69-5.36,6a6.22,6.22,0,0,0,2.54,5.12" transform="translate(-2.46 -1.33)"/><path class="cls-1" d="M29.32,10.39a4.32,4.32,0,0,1-.82.07,4.56,4.56,0,0,1-1.45-.22,9.83,9.83,0,0,0-.77,2.49,8.88,8.88,0,0,0,3.25,0q-.06-1.26-.21-2.34" transform="translate(-2.46 -1.33)"/><polygon class="cls-1" points="27.17 15.52 22.88 17.71 23 18 27.27 15.68 27.17 15.52"/><polygon class="cls-1" points="24.81 16.89 24.77 16.98 24.83 17.05 25.08 16.95 25.39 16.76 25.5 16.62 25.37 16.62 24.81 16.89"/><path class="cls-1" d="M38.15,11.06a.52.52,0,0,0-.58-.58H36.49V8.3h2.44c1.16,0,1.69.5,1.69,1.47v.5c0,.42,0,.77,0,.77h0a5.16,5.16,0,0,1,4.55-3c2.26,0,3.55,1,4,3h.05A5.34,5.34,0,0,1,54,8c3,0,4.39,1.71,4.39,5.1v5.75a.51.51,0,0,0,.58.58H60V21.6H57.49c-1.18,0-1.68-.5-1.68-1.68V13.64c0-1.87-.37-3.34-2.34-3.34s-3.26,1.6-3.73,3.42a7.69,7.69,0,0,0-.21,1.81V21.6H47v-8c0-1.74-.27-3.34-2.29-3.34s-3.31,1.63-3.81,3.52a7.23,7.23,0,0,0-.19,1.71V21.6H38.15Z" transform="translate(-2.46 -1.33)"/><path class="cls-1" d="M62.78,11.06a.52.52,0,0,0-.58-.58H61.12V8.3h2.44c1.13,0,1.69.5,1.69,1.47v.5a5.09,5.09,0,0,1-.06.77h.06a5.4,5.4,0,0,1,5-3c3.16,0,4.57,1.71,4.57,5.1v5.75a.52.52,0,0,0,.58.58h1.08V21.6H74c-1.19,0-1.68-.5-1.68-1.68V13.66c0-1.86-.37-3.33-2.5-3.33a4.32,4.32,0,0,0-4.21,3.26,5.53,5.53,0,0,0-.23,1.78V21.6H62.78Z" transform="translate(-2.46 -1.33)"/><path class="cls-1" d="M79.42,3.05H81.7V5.7H79.42Zm-.06,8a.52.52,0,0,0-.58-.58H77.71V8.3H80.2c1.19,0,1.69.5,1.69,1.68v8.86a.51.51,0,0,0,.57.58h1.08V21.6H81.05c-1.19,0-1.69-.5-1.69-1.68Z" transform="translate(-2.46 -1.33)"/><path class="cls-1" d="M90.27,19.87c2.16,0,3.55-2.26,3.55-4.23v-.45h-.66c-1.92,0-5.39.1-5.39,2.55a2.22,2.22,0,0,0,2.5,2.13m3-6.55h.57v-.13c0-2.34-.86-3.18-2.94-3.18-.63,0-2.18.16-2.18,1v.76H86.28V10.48C86.28,8.3,89.59,8,90.88,8c4.31,0,5.46,2.26,5.46,5.2v5.65a.51.51,0,0,0,.58.58H98V21.6H95.61C94.43,21.6,94,21,94,20.08a6,6,0,0,1,0-.79h0a4.54,4.54,0,0,1-4.23,2.63c-2.29,0-4.52-1.39-4.52-4.05,0-4.28,5.78-4.55,8-4.55" transform="translate(-2.46 -1.33)"/><path class="cls-1" d="M23.82,17.83a.32.32,0,0,1-.64,0,.32.32,0,1,1,.64,0" transform="translate(-2.46 -1.33)"/><path class="cls-1" d="M11,13.55,6.14,6.39A2.15,2.15,0,0,0,4,5.45H2.61V1.33H5.69c2.33,0,3,.44,4.37,2.53l3.08,4.87c.35.65.8,1.59.8,1.59H14s.44-.94.84-1.59l3-4.87c1.29-2.14,2-2.53,4.37-2.53h3.13V5.45H24a2.17,2.17,0,0,0-2.13.9L17,13.55l8.49,12.92H20.1l-5.32-8.2c-.35-.6-.74-1.34-.74-1.34h-.1s-.4.74-.8,1.34l-5.22,8.2H2.46Z" transform="translate(-2.46 -1.33)"/><text class="cls-2" transform="translate(35.91 26.64)">Impact with AI </text></svg>